<svg width="52" height="51" viewBox="0 0 52 51" fill="none" xmlns="http://www.w3.org/2000/svg">
<rect width="52" height="51" rx="10" fill="#CDCBE0"/>
<path d="M38.312 13.8811C38.1752 13.9194 36.009 14.7454 33.4982 15.7082C30.9873 16.671 25.5116 18.7661 21.3268 20.3689C17.1421 21.9717 13.5153 23.3611 13.2582 23.465C12.3939 23.8151 12 24.1762 12 24.6357C12 24.9311 12.1368 25.1225 12.4923 25.314C12.733 25.4453 19.0949 27.4693 19.3302 27.4912C19.3739 27.4966 22.7381 25.4179 26.808 22.8688C30.8724 20.3251 34.2804 18.2026 34.3789 18.1479C34.5977 18.0385 34.9423 18.0167 35.0408 18.1151C35.0955 18.1698 35.09 18.2081 35.0298 18.312C34.9861 18.3832 32.2509 20.8612 28.9578 23.8151L22.9679 29.1924L22.771 31.9604C22.6616 33.4811 22.5522 34.9581 22.5357 35.2316L22.4975 35.7403H22.7381C23.1758 35.7403 23.4329 35.5379 25.2326 33.8148L26.9284 32.1901L30.1722 34.5642C32.3111 36.1342 33.52 36.9821 33.717 37.0641C33.9139 37.1407 34.1437 37.1845 34.3734 37.1845C34.9478 37.19 35.2869 36.9383 35.5714 36.2874C35.6261 36.1506 36.6545 31.4626 37.847 25.8665C39.9859 15.834 40.0187 15.6863 39.9968 15.1666C39.9804 14.6962 39.9586 14.6087 39.8109 14.3735C39.5209 13.903 38.9083 13.7006 38.312 13.8811Z" fill="white"/>
</svg>
